<svg width="537" height="108" viewBox="0 0 537 108" fill="none" xmlns="http://www.w3.org/2000/svg">
<path d="M203.991 46.0927C206.03 46.5283 207.668 47.5502 208.904 49.1586C210.141 50.7334 210.759 52.5428 210.759 54.5868C210.759 57.5354 209.723 59.881 207.651 61.6233C205.612 63.3322 202.754 64.1867 199.078 64.1867H182.684V28.9034H198.526C202.103 28.9034 204.893 29.7243 206.899 31.3662C208.938 33.008 209.957 35.2363 209.957 38.0509C209.957 40.1283 209.406 41.854 208.303 43.2278C207.233 44.6016 205.796 45.5565 203.991 46.0927ZM191.257 43.1775H196.872C198.276 43.1775 199.345 42.876 200.081 42.2728C200.849 41.6362 201.234 40.7147 201.234 39.5085C201.234 38.3022 200.849 37.3807 200.081 36.7441C199.345 36.1075 198.276 35.7891 196.872 35.7891H191.257V43.1775ZM197.574 57.2506C199.011 57.2506 200.114 56.9323 200.883 56.2957C201.685 55.6255 202.086 54.6706 202.086 53.4308C202.086 52.191 201.668 51.2193 200.833 50.5156C200.03 49.812 198.911 49.4602 197.474 49.4602H191.257V57.2506H197.574Z" fill="white"/>
<path d="M224.806 28.9034V64.1867H216.233V28.9034H224.806Z" fill="white"/>
<path d="M252.827 46.0927C254.866 46.5283 256.503 47.5502 257.74 49.1586C258.977 50.7334 259.595 52.5428 259.595 54.5868C259.595 57.5354 258.559 59.881 256.487 61.6233C254.448 63.3322 251.59 64.1867 247.914 64.1867H231.52V28.9034H247.362C250.939 28.9034 253.729 29.7243 255.735 31.3662C257.773 33.008 258.793 35.2363 258.793 38.0509C258.793 40.1283 258.241 41.854 257.138 43.2278C256.069 44.6016 254.632 45.5565 252.827 46.0927ZM240.093 43.1775H245.708C247.112 43.1775 248.181 42.876 248.916 42.2728C249.685 41.6362 250.07 40.7147 250.07 39.5085C250.07 38.3022 249.685 37.3807 248.916 36.7441C248.181 36.1075 247.112 35.7891 245.708 35.7891H240.093V43.1775ZM246.41 57.2506C247.847 57.2506 248.95 56.9323 249.719 56.2957C250.521 55.6255 250.922 54.6706 250.922 53.4308C250.922 52.191 250.504 51.2193 249.668 50.5156C248.866 49.812 247.747 49.4602 246.309 49.4602H240.093V57.2506H246.41Z" fill="white"/>
<path d="M273.642 57.5522H284.872V64.1867H265.069V28.9034H273.642V57.5522Z" fill="white"/>
<path d="M298.035 28.9034V64.1867H289.462V28.9034H298.035Z" fill="white"/>
<path d="M321.394 64.5385C318.085 64.5385 315.043 63.7678 312.269 62.2265C309.529 60.6851 307.339 58.5407 305.702 55.7931C304.097 53.0119 303.295 49.8957 303.295 46.4445C303.295 42.9932 304.097 39.8938 305.702 37.1462C307.339 34.3986 309.529 32.2541 312.269 30.7128C315.043 29.1714 318.085 28.4008 321.394 28.4008C324.703 28.4008 327.727 29.1714 330.468 30.7128C333.242 32.2541 335.415 34.3986 336.985 37.1462C338.59 39.8938 339.392 42.9932 339.392 46.4445C339.392 49.8957 338.59 53.0119 336.985 55.7931C335.381 58.5407 333.209 60.6851 330.468 62.2265C327.727 63.7678 324.703 64.5385 321.394 64.5385ZM321.394 56.6978C324.201 56.6978 326.441 55.7595 328.112 53.8831C329.816 52.0067 330.669 49.5272 330.669 46.4445C330.669 43.3283 329.816 40.8488 328.112 39.0058C326.441 37.1294 324.201 36.1912 321.394 36.1912C318.553 36.1912 316.28 37.1127 314.575 38.9556C312.904 40.7985 312.069 43.2948 312.069 46.4445C312.069 49.5607 312.904 52.057 314.575 53.9334C316.28 55.7763 318.553 56.6978 321.394 56.6978Z" fill="white"/>
<path d="M369.98 28.9034V35.7891H360.656V64.1867H352.083V35.7891H342.758V28.9034H369.98Z" fill="white"/>
<path d="M405.266 28.9034V64.1867H396.693V49.6612H383.357V64.1867H374.784V28.9034H383.357V42.7252H396.693V28.9034H405.266Z" fill="white"/>
<path d="M420.529 35.7891V42.9262H432.01V49.5607H420.529V57.3009H433.514V64.1867H411.956V28.9034H433.514V35.7891H420.529ZM428.35 20.9621V26.8929L416.268 21.8166V15.1318L428.35 20.9621Z" fill="white"/>
<path d="M464.648 70.218L460.136 64.1364C458.799 64.4045 457.496 64.5385 456.226 64.5385C452.917 64.5385 449.875 63.7678 447.101 62.2265C444.36 60.6851 442.171 58.5407 440.534 55.7931C438.929 53.0119 438.127 49.8957 438.127 46.4445C438.127 42.9932 438.929 39.8938 440.534 37.1462C442.171 34.3986 444.36 32.2541 447.101 30.7128C449.875 29.1714 452.917 28.4008 456.226 28.4008C459.534 28.4008 462.559 29.1714 465.3 30.7128C468.074 32.2541 470.246 34.3986 471.817 37.1462C473.422 39.8938 474.224 42.9932 474.224 46.4445C474.224 49.4602 473.605 52.2245 472.369 54.7376C471.166 57.2171 469.478 59.2778 467.305 60.9197L475.026 70.218H464.648ZM446.901 46.4445C446.901 49.5607 447.736 52.057 449.407 53.9334C451.112 55.7763 453.385 56.6978 456.226 56.6978C459.033 56.6978 461.272 55.7595 462.944 53.8831C464.648 52.0067 465.5 49.5272 465.5 46.4445C465.5 43.3283 464.648 40.8488 462.944 39.0058C461.272 37.1294 459.033 36.1912 456.226 36.1912C453.385 36.1912 451.112 37.1127 449.407 38.9556C447.736 40.7985 446.901 43.2948 446.901 46.4445Z" fill="white"/>
<path d="M488.015 28.9034V50.013C488.015 52.124 488.533 53.7491 489.569 54.8884C490.605 56.0276 492.126 56.5972 494.131 56.5972C496.137 56.5972 497.674 56.0276 498.744 54.8884C499.813 53.7491 500.348 52.124 500.348 50.013V28.9034H508.921V49.9628C508.921 53.1125 508.252 55.7763 506.916 57.9543C505.579 60.1323 503.774 61.7741 501.501 62.8799C499.262 63.9856 496.755 64.5385 493.981 64.5385C491.207 64.5385 488.717 64.0024 486.511 62.9301C484.338 61.8244 482.617 60.1825 481.347 58.0045C480.077 55.7931 479.442 53.1125 479.442 49.9628V28.9034H488.015Z" fill="white"/>
<path d="M524.015 35.7891V42.9262H535.496V49.5607H524.015V57.3009H537V64.1867H515.442V28.9034H537V35.7891H524.015Z" fill="white"/>
<path d="M202.982 72.7248V92.4585H199.034V79.6231L193.761 92.4585H190.771L185.47 79.6231V92.4585H181.521V72.7248H186.005L192.266 87.3978L198.526 72.7248H202.982Z" fill="white"/>
<path d="M211.059 72.7248V84.9382C211.059 86.2764 211.407 87.3036 212.103 88.0198C212.798 88.7172 213.776 89.0659 215.035 89.0659C216.314 89.0659 217.301 88.7172 217.996 88.0198C218.692 87.3036 219.04 86.2764 219.04 84.9382V72.7248H223.016V84.9099C223.016 86.5874 222.65 88.0104 221.916 89.179C221.202 90.3287 220.234 91.1957 219.012 91.78C217.808 92.3643 216.464 92.6564 214.979 92.6564C213.513 92.6564 212.178 92.3643 210.975 91.78C209.79 91.1957 208.85 90.3287 208.154 89.179C207.459 88.0104 207.111 86.5874 207.111 84.9099V72.7248H211.059Z" fill="white"/>
<path d="M243.948 92.4585H240L231.061 78.9163V92.4585H227.113V72.6965H231.061L240 86.267V72.6965H243.948V92.4585Z" fill="white"/>
<path d="M252.08 72.7248V92.4585H248.132V72.7248H252.08Z" fill="white"/>
<path d="M255.304 82.5634C255.304 80.622 255.736 78.888 256.601 77.3613C257.485 75.8158 258.679 74.619 260.183 73.7708C261.705 72.9038 263.407 72.4703 265.287 72.4703C267.487 72.4703 269.414 73.0357 271.068 74.1666C272.722 75.2975 273.879 76.8619 274.537 78.8597H269.996C269.545 77.9173 268.906 77.2106 268.079 76.7394C267.27 76.2682 266.33 76.0326 265.259 76.0326C264.112 76.0326 263.087 76.3059 262.185 76.8524C261.301 77.3802 260.606 78.1341 260.098 79.1142C259.609 80.0943 259.365 81.244 259.365 82.5634C259.365 83.8639 259.609 85.0136 260.098 86.0125C260.606 86.9926 261.301 87.756 262.185 88.3025C263.087 88.8303 264.112 89.0942 265.259 89.0942C266.33 89.0942 267.27 88.8586 268.079 88.3874C268.906 87.8973 269.545 87.1811 269.996 86.2387H274.537C273.879 88.2554 272.722 89.8292 271.068 90.9601C269.432 92.0721 267.505 92.6281 265.287 92.6281C263.407 92.6281 261.705 92.2041 260.183 91.3559C258.679 90.4889 257.485 89.2921 256.601 87.7654C255.736 86.2387 255.304 84.5047 255.304 82.5634Z" fill="white"/>
<path d="M282.139 72.7248V92.4585H278.191V72.7248H282.139Z" fill="white"/>
<path d="M300.676 78.8315C300.676 79.887 300.422 80.8765 299.914 81.8C299.426 82.7236 298.645 83.4681 297.574 84.0335C296.521 84.5989 295.186 84.8816 293.569 84.8816H290.27V92.4585H286.322V72.7248H293.569C295.092 72.7248 296.389 72.9886 297.461 73.5164C298.533 74.0441 299.332 74.7698 299.858 75.6933C300.403 76.6168 300.676 77.6629 300.676 78.8315ZM293.4 81.6869C294.49 81.6869 295.299 81.4419 295.825 80.9519C296.352 80.443 296.615 79.7362 296.615 78.8315C296.615 76.909 295.543 75.9477 293.4 75.9477H290.27V81.6869H293.4Z" fill="white"/>
<path d="M315.831 88.6983H307.991L306.694 92.4585H302.548L309.627 72.6965H314.223L321.302 92.4585H317.128L315.831 88.6983ZM314.759 85.5319L311.911 77.2765L309.063 85.5319H314.759Z" fill="white"/>
<path d="M328.177 89.3203H334.664V92.4585H324.229V72.7248H328.177V89.3203Z" fill="white"/>
<path d="M341.403 75.9195V80.867H348.03V84.0052H341.403V89.2355H348.876V92.4585H337.455V72.6965H348.876V75.9195H341.403Z" fill="white"/>
<path d="M366.629 72.7248C368.697 72.7248 370.511 73.13 372.071 73.9404C373.651 74.7509 374.863 75.91 375.709 77.4179C376.574 78.9069 377.006 80.6409 377.006 82.6199C377.006 84.5989 376.574 86.3329 375.709 87.8219C374.863 89.2921 373.651 90.4324 372.071 91.2428C370.511 92.0533 368.697 92.4585 366.629 92.4585H359.748V72.7248H366.629ZM366.488 89.0942C368.556 89.0942 370.154 88.5287 371.282 87.3978C372.41 86.267 372.974 84.6743 372.974 82.6199C372.974 80.5655 372.41 78.9634 371.282 77.8137C370.154 76.6451 368.556 76.0608 366.488 76.0608H363.696V89.0942H366.488Z" fill="white"/>
<path d="M384.192 75.9195V80.867H390.819V84.0052H384.192V89.2355H391.665V92.4585H380.244V72.6965H391.665V75.9195H384.192Z" fill="white"/>
<path d="M406.485 89.3203H412.971V92.4585H402.536V72.7248H406.485V89.3203Z" fill="white"/>
<path d="M431.413 72.7248L424.758 85.5884V92.4585H420.81V85.5884L414.126 72.7248H418.582L422.812 81.7435L427.014 72.7248H431.413Z" fill="white"/>
<path d="M443.109 92.6564C441.267 92.6564 439.575 92.2229 438.033 91.3559C436.492 90.4889 435.27 89.2921 434.367 87.7654C433.465 86.2199 433.014 84.4764 433.014 82.5351C433.014 80.6126 433.465 78.888 434.367 77.3613C435.27 75.8158 436.492 74.6095 438.033 73.7425C439.575 72.8755 441.267 72.442 443.109 72.442C444.971 72.442 446.663 72.8755 448.185 73.7425C449.727 74.6095 450.94 75.8158 451.823 77.3613C452.726 78.888 453.177 80.6126 453.177 82.5351C453.177 84.4764 452.726 86.2199 451.823 87.7654C450.94 89.2921 449.727 90.4889 448.185 91.3559C446.644 92.2229 444.952 92.6564 443.109 92.6564ZM443.109 89.1224C444.294 89.1224 445.337 88.8586 446.24 88.3308C447.142 87.7842 447.847 87.0115 448.355 86.0125C448.862 85.0136 449.116 83.8544 449.116 82.5351C449.116 81.2157 448.862 80.066 448.355 79.0859C447.847 78.087 447.142 77.3236 446.24 76.7959C445.337 76.2682 444.294 76.0043 443.109 76.0043C441.925 76.0043 440.872 76.2682 439.951 76.7959C439.048 77.3236 438.343 78.087 437.836 79.0859C437.328 80.066 437.074 81.2157 437.074 82.5351C437.074 83.8544 437.328 85.0136 437.836 86.0125C438.343 87.0115 439.048 87.7842 439.951 88.3308C440.872 88.8586 441.925 89.1224 443.109 89.1224Z" fill="white"/>
<path d="M473.232 92.4585H469.284L460.344 78.9163V92.4585H456.396V72.6965H460.344L469.284 86.267V72.6965H473.232V92.4585Z" fill="white"/>
<path fill-rule="evenodd" clip-rule="evenodd" d="M10.2761 0H11.1698L11.8149 20.8055L29.4914 8.70983V107.238H0V28.8903L9.58365 22.3323L10.2761 0ZM47.5909 77.0813H29.4949V107.243H47.5918V107.24H65.0177V107.239H69.0364V107.241H95.1773V107.241H113.274V107.237H118.638V107.241H154.161V9.38321H118.638V67.692H111.263V88.474H105.23V26.2141L86.9851 9.38321L69.0364 26.2141V70.3748H65.0177V64.3433H47.5909V77.0813Z" fill="white"/>
</svg>
