<svg width="267" height="54" viewBox="0 0 267 54" fill="none" xmlns="http://www.w3.org/2000/svg">
<path d="M101.426 23.1098C102.44 23.3263 103.254 23.8345 103.869 24.6342C104.484 25.4172 104.791 26.3168 104.791 27.3331C104.791 28.7992 104.276 29.9654 103.246 30.8317C102.232 31.6814 100.811 32.1062 98.9831 32.1062H90.8319V14.5631H98.7089C100.487 14.5631 101.875 14.9713 102.872 15.7876C103.885 16.604 104.392 17.7119 104.392 19.1113C104.392 20.1443 104.118 21.0023 103.57 21.6853C103.038 22.3684 102.323 22.8432 101.426 23.1098ZM95.0944 21.6603H97.8863C98.5842 21.6603 99.116 21.5104 99.4816 21.2105C99.8638 20.894 100.055 20.4358 100.055 19.8361C100.055 19.2363 99.8638 18.7781 99.4816 18.4616C99.116 18.1451 98.5842 17.9868 97.8863 17.9868H95.0944V21.6603ZM98.2353 28.6576C98.9498 28.6576 99.4982 28.4993 99.8804 28.1828C100.279 27.8496 100.479 27.3748 100.479 26.7583C100.479 26.1419 100.271 25.6588 99.8555 25.3089C99.4567 24.959 98.9 24.7841 98.1854 24.7841H95.0944V28.6576H98.2353Z" fill="white"/>
<path d="M111.775 14.5631V32.1062H107.513V14.5631H111.775Z" fill="white"/>
<path d="M125.707 23.1098C126.721 23.3263 127.535 23.8345 128.15 24.6342C128.765 25.4172 129.073 26.3168 129.073 27.3331C129.073 28.7992 128.557 29.9654 127.527 30.8317C126.513 31.6814 125.093 32.1062 123.265 32.1062H115.113V14.5631H122.99C124.769 14.5631 126.156 14.9713 127.153 15.7876C128.167 16.604 128.674 17.7119 128.674 19.1113C128.674 20.1443 128.4 21.0023 127.851 21.6853C127.319 22.3684 126.605 22.8432 125.707 23.1098ZM119.376 21.6603H122.168C122.866 21.6603 123.398 21.5104 123.763 21.2105C124.145 20.894 124.336 20.4358 124.336 19.8361C124.336 19.2363 124.145 18.7781 123.763 18.4616C123.398 18.1451 122.866 17.9868 122.168 17.9868H119.376V21.6603ZM122.517 28.6576C123.231 28.6576 123.78 28.4993 124.162 28.1828C124.561 27.8496 124.76 27.3748 124.76 26.7583C124.76 26.1419 124.553 25.6588 124.137 25.3089C123.738 24.959 123.182 24.7841 122.467 24.7841H119.376V28.6576H122.517Z" fill="white"/>
<path d="M136.057 28.8075H141.64V32.1062H131.794V14.5631H136.057V28.8075Z" fill="white"/>
<path d="M148.185 14.5631V32.1062H143.923V14.5631H148.185Z" fill="white"/>
<path d="M159.799 32.2812C158.154 32.2812 156.642 31.898 155.263 31.1316C153.9 30.3652 152.811 29.299 151.997 27.9329C151.2 26.5501 150.801 25.0007 150.801 23.2847C150.801 21.5687 151.2 20.0276 151.997 18.6615C152.811 17.2954 153.9 16.2291 155.263 15.4628C156.642 14.6964 158.154 14.3132 159.799 14.3132C161.445 14.3132 162.949 14.6964 164.311 15.4628C165.69 16.2291 166.771 17.2954 167.552 18.6615C168.349 20.0276 168.748 21.5687 168.748 23.2847C168.748 25.0007 168.349 26.5501 167.552 27.9329C166.754 29.299 165.674 30.3652 164.311 31.1316C162.949 31.898 161.445 32.2812 159.799 32.2812ZM159.799 28.3827C161.195 28.3827 162.309 27.9162 163.14 26.9832C163.987 26.0503 164.411 24.8174 164.411 23.2847C164.411 21.7353 163.987 20.5025 163.14 19.5862C162.309 18.6532 161.195 18.1867 159.799 18.1867C158.387 18.1867 157.257 18.6449 156.409 19.5612C155.578 20.4775 155.163 21.7186 155.163 23.2847C155.163 24.8341 155.578 26.0753 156.409 27.0082C157.257 27.9245 158.387 28.3827 159.799 28.3827Z" fill="white"/>
<path d="M183.957 14.5631V17.9868H179.321V32.1062H175.058V17.9868H170.422V14.5631H183.957Z" fill="white"/>
<path d="M201.501 14.5631V32.1062H197.239V24.8841H190.608V32.1062H186.346V14.5631H190.608V21.4354H197.239V14.5631H201.501Z" fill="white"/>
<path d="M209.09 17.9868V21.5354H214.799V24.8341H209.09V28.6826H215.546V32.1062H204.828V14.5631H215.546V17.9868H209.09ZM212.979 10.6147V13.5635L206.971 11.0395V7.71582L212.979 10.6147Z" fill="white"/>
<path d="M231.026 35.105L228.783 32.0812C228.118 32.2145 227.47 32.2812 226.839 32.2812C225.194 32.2812 223.681 31.898 222.302 31.1316C220.939 30.3652 219.851 29.299 219.037 27.9329C218.239 26.5501 217.84 25.0007 217.84 23.2847C217.84 21.5687 218.239 20.0276 219.037 18.6615C219.851 17.2954 220.939 16.2291 222.302 15.4628C223.681 14.6964 225.194 14.3132 226.839 14.3132C228.484 14.3132 229.988 14.6964 231.351 15.4628C232.73 16.2291 233.81 17.2954 234.591 18.6615C235.389 20.0276 235.788 21.5687 235.788 23.2847C235.788 24.7841 235.48 26.1586 234.865 27.4081C234.267 28.6409 233.428 29.6655 232.348 30.4819L236.186 35.105H231.026ZM222.202 23.2847C222.202 24.8341 222.618 26.0753 223.449 27.0082C224.296 27.9245 225.426 28.3827 226.839 28.3827C228.235 28.3827 229.348 27.9162 230.179 26.9832C231.026 26.0503 231.45 24.8174 231.45 23.2847C231.45 21.7353 231.026 20.5025 230.179 19.5862C229.348 18.6532 228.235 18.1867 226.839 18.1867C225.426 18.1867 224.296 18.6449 223.449 19.5612C222.618 20.4775 222.202 21.7186 222.202 23.2847Z" fill="white"/>
<path d="M242.645 14.5631V25.059C242.645 26.1086 242.902 26.9166 243.417 27.483C243.933 28.0495 244.689 28.3327 245.686 28.3327C246.683 28.3327 247.447 28.0495 247.979 27.483C248.511 26.9166 248.777 26.1086 248.777 25.059V14.5631H253.039V25.034C253.039 26.6001 252.707 27.9245 252.042 29.0074C251.377 30.0904 250.48 30.9067 249.35 31.4565C248.237 32.0063 246.99 32.2812 245.611 32.2812C244.232 32.2812 242.994 32.0146 241.897 31.4815C240.817 30.9317 239.961 30.1153 239.329 29.0324C238.698 27.9329 238.382 26.6001 238.382 25.034V14.5631H242.645Z" fill="white"/>
<path d="M260.544 17.9868V21.5354H266.253V24.8341H260.544V28.6826H267V32.1062H256.282V14.5631H267V17.9868H260.544Z" fill="white"/>
<path d="M100.924 36.3514V46.1632H98.9613V39.7813L96.3392 46.1632H94.853L92.2169 39.7813V46.1632H90.2539V36.3514H92.4833L95.5961 43.647L98.7089 36.3514H100.924Z" fill="white"/>
<path d="M104.94 36.3514V42.424C104.94 43.0894 105.113 43.6001 105.459 43.9563C105.805 44.303 106.291 44.4764 106.917 44.4764C107.553 44.4764 108.044 44.303 108.39 43.9563C108.735 43.6001 108.908 43.0894 108.908 42.424V36.3514H110.885V42.41C110.885 43.244 110.703 43.9516 110.339 44.5326C109.983 45.1042 109.502 45.5353 108.894 45.8258C108.296 46.1163 107.628 46.2616 106.889 46.2616C106.16 46.2616 105.496 46.1163 104.898 45.8258C104.309 45.5353 103.842 45.1042 103.496 44.5326C103.15 43.9516 102.977 43.244 102.977 42.41V36.3514H104.94Z" fill="white"/>
<path d="M121.293 46.1632H119.33L114.885 39.4299V46.1632H112.922V36.3374H114.885L119.33 43.0847V36.3374H121.293V46.1632Z" fill="white"/>
<path d="M125.336 36.3514V46.1632H123.373V36.3514H125.336Z" fill="white"/>
<path d="M126.939 41.2433C126.939 40.278 127.154 39.4159 127.584 38.6568C128.023 37.8883 128.617 37.2933 129.365 36.8715C130.122 36.4405 130.968 36.2249 131.903 36.2249C132.996 36.2249 133.955 36.5061 134.777 37.0683C135.6 37.6306 136.175 38.4084 136.502 39.4018H134.244C134.02 38.9332 133.702 38.5818 133.291 38.3475C132.889 38.1132 132.421 37.9961 131.889 37.9961C131.318 37.9961 130.809 38.132 130.36 38.4037C129.921 38.6661 129.575 39.041 129.323 39.5283C129.08 40.0156 128.958 40.5873 128.958 41.2433C128.958 41.8899 129.08 42.4615 129.323 42.9582C129.575 43.4455 129.921 43.8251 130.36 44.0968C130.809 44.3592 131.318 44.4904 131.889 44.4904C132.421 44.4904 132.889 44.3733 133.291 44.139C133.702 43.8953 134.02 43.5392 134.244 43.0707H136.502C136.175 44.0734 135.6 44.8559 134.777 45.4182C133.964 45.9711 133.006 46.2475 131.903 46.2475C130.968 46.2475 130.122 46.0367 129.365 45.615C128.617 45.1839 128.023 44.5888 127.584 43.8297C127.154 43.0707 126.939 42.2085 126.939 41.2433Z" fill="white"/>
<path d="M140.282 36.3514V46.1632H138.319V36.3514H140.282Z" fill="white"/>
<path d="M149.498 39.3877C149.498 39.9125 149.372 40.4045 149.12 40.8637C148.877 41.3229 148.489 41.6931 147.956 41.9742C147.432 42.2554 146.769 42.3959 145.965 42.3959H144.324V46.1632H142.361V36.3514H145.965C146.722 36.3514 147.367 36.4826 147.9 36.745C148.433 37.0074 148.83 37.3682 149.092 37.8274C149.363 38.2866 149.498 38.8067 149.498 39.3877ZM145.881 40.8075C146.423 40.8075 146.825 40.6857 147.087 40.442C147.348 40.189 147.479 39.8376 147.479 39.3877C147.479 38.4319 146.946 37.9539 145.881 37.9539H144.324V40.8075H145.881Z" fill="white"/>
<path d="M157.033 44.2936H153.135L152.49 46.1632H150.429L153.949 36.3374H156.234L159.754 46.1632H157.678L157.033 44.2936ZM156.501 42.7192L155.084 38.6146L153.668 42.7192H156.501Z" fill="white"/>
<path d="M163.172 44.6029H166.397V46.1632H161.209V36.3514H163.172V44.6029Z" fill="white"/>
<path d="M169.748 37.9399V40.3998H173.043V41.9602H169.748V44.5607H173.464V46.1632H167.785V36.3374H173.464V37.9399H169.748Z" fill="white"/>
<path d="M182.29 36.3514C183.319 36.3514 184.221 36.5529 184.997 36.9559C185.782 37.3588 186.385 37.9352 186.805 38.6849C187.235 39.4252 187.45 40.2874 187.45 41.2714C187.45 42.2554 187.235 43.1175 186.805 43.8579C186.385 44.5888 185.782 45.1558 184.997 45.5587C184.221 45.9617 183.319 46.1632 182.29 46.1632H178.869V36.3514H182.29ZM182.22 44.4904C183.249 44.4904 184.043 44.2093 184.604 43.647C185.165 43.0847 185.445 42.2928 185.445 41.2714C185.445 40.2499 185.165 39.4533 184.604 38.8817C184.043 38.3007 183.249 38.0102 182.22 38.0102H180.832V44.4904H182.22Z" fill="white"/>
<path d="M191.023 37.9399V40.3998H194.318V41.9602H191.023V44.5607H194.739V46.1632H189.06V36.3374H194.739V37.9399H191.023Z" fill="white"/>
<path d="M202.107 44.6029H205.332V46.1632H200.144V36.3514H202.107V44.6029Z" fill="white"/>
<path d="M214.502 36.3514L211.193 42.7474V46.1632H209.23V42.7474L205.907 36.3514H208.122L210.225 40.8356L212.315 36.3514H214.502Z" fill="white"/>
<path d="M220.317 46.2616C219.401 46.2616 218.56 46.0461 217.793 45.615C217.027 45.1839 216.419 44.5888 215.971 43.8297C215.522 43.0613 215.298 42.1944 215.298 41.2292C215.298 40.2733 215.522 39.4159 215.971 38.6568C216.419 37.8883 217.027 37.2886 217.793 36.8575C218.56 36.4264 219.401 36.2109 220.317 36.2109C221.243 36.2109 222.084 36.4264 222.841 36.8575C223.608 37.2886 224.211 37.8883 224.65 38.6568C225.099 39.4159 225.323 40.2733 225.323 41.2292C225.323 42.1944 225.099 43.0613 224.65 43.8297C224.211 44.5888 223.608 45.1839 222.841 45.615C222.075 46.0461 221.233 46.2616 220.317 46.2616ZM220.317 44.5045C220.906 44.5045 221.425 44.3733 221.874 44.1109C222.322 43.8391 222.673 43.4549 222.925 42.9582C223.178 42.4615 223.304 41.8852 223.304 41.2292C223.304 40.5732 223.178 40.0016 222.925 39.5143C222.673 39.0176 222.322 38.638 221.874 38.3756C221.425 38.1132 220.906 37.982 220.317 37.982C219.728 37.982 219.205 38.1132 218.747 38.3756C218.298 38.638 217.948 39.0176 217.695 39.5143C217.443 40.0016 217.317 40.5732 217.317 41.2292C217.317 41.8852 217.443 42.4615 217.695 42.9582C217.948 43.4549 218.298 43.8391 218.747 44.1109C219.205 44.3733 219.728 44.5045 220.317 44.5045Z" fill="white"/>
<path d="M235.294 46.1632H233.331L228.887 39.4299V46.1632H226.924V36.3374H228.887L233.331 43.0847V36.3374H235.294V46.1632Z" fill="white"/>
<path fill-rule="evenodd" clip-rule="evenodd" d="M5.10972 0.193359H5.55406L5.87487 10.5393L14.6633 4.5255V53.5143H0V14.5593L4.76538 11.2985L5.10972 0.193359ZM23.6614 38.5186H14.6639V53.5152H23.6618V53.5143H32.3261V53.5141H34.3258V53.5143H52.3216V53.5137H55.3206V53.5142H58.9869V53.5143H76.6495V4.85874H58.9869V33.852H55.3206V44.1825H52.3216V13.2272L43.2499 4.85874L34.3258 13.2272V35.185H32.3261V32.1858H23.6614V38.5186Z" fill="white"/>
</svg>
