<svg width="138" height="29" viewBox="0 0 138 29" fill="none" xmlns="http://www.w3.org/2000/svg">
<path d="M52.4222 12.7259C52.9462 12.8379 53.367 13.1005 53.6848 13.5138C54.0026 13.9185 54.1615 14.3835 54.1615 14.9088C54.1615 15.6665 53.8953 16.2693 53.3628 16.7171C52.8388 17.1562 52.1044 17.3758 51.1596 17.3758H46.9467V8.30858H51.0179C51.937 8.30858 52.6541 8.51955 53.1695 8.94148C53.6934 9.36341 53.9554 9.93603 53.9554 10.6593C53.9554 11.1932 53.8137 11.6367 53.5302 11.9897C53.2554 12.3428 52.8861 12.5882 52.4222 12.7259ZM49.1498 11.9768H50.5928C50.9535 11.9768 51.2284 11.8993 51.4173 11.7443C51.6149 11.5807 51.7136 11.3439 51.7136 11.0339C51.7136 10.7239 51.6149 10.4871 51.4173 10.3235C51.2284 10.1599 50.9535 10.0781 50.5928 10.0781H49.1498V11.9768ZM50.7731 15.5933C51.1425 15.5933 51.4259 15.5115 51.6235 15.3479C51.8296 15.1757 51.9327 14.9303 51.9327 14.6117C51.9327 14.2931 51.8253 14.0434 51.6106 13.8626C51.4044 13.6817 51.1167 13.5913 50.7474 13.5913H49.1498V15.5933H50.7731Z" fill="white" fill-opacity="0.68"/>
<path d="M57.7713 8.30858V17.3758H55.5682V8.30858H57.7713Z" fill="white" fill-opacity="0.68"/>
<path d="M64.9722 12.7259C65.4962 12.8379 65.917 13.1005 66.2348 13.5138C66.5526 13.9185 66.7115 14.3835 66.7115 14.9088C66.7115 15.6665 66.4453 16.2693 65.9127 16.7171C65.3888 17.1562 64.6544 17.3758 63.7096 17.3758H59.4967V8.30858H63.5679C64.4869 8.30858 65.2041 8.51955 65.7195 8.94148C66.2434 9.36341 66.5054 9.93603 66.5054 10.6593C66.5054 11.1932 66.3637 11.6367 66.0802 11.9897C65.8054 12.3428 65.436 12.5882 64.9722 12.7259ZM61.6998 11.9768H63.1428C63.5035 11.9768 63.7783 11.8993 63.9673 11.7443C64.1649 11.5807 64.2636 11.3439 64.2636 11.0339C64.2636 10.7239 64.1649 10.4871 63.9673 10.3235C63.7783 10.1599 63.5035 10.0781 63.1428 10.0781H61.6998V11.9768ZM63.3231 15.5933C63.6925 15.5933 63.9759 15.5115 64.1734 15.3479C64.3796 15.1757 64.4827 14.9303 64.4827 14.6117C64.4827 14.2931 64.3753 14.0434 64.1606 13.8626C63.9544 13.6817 63.6667 13.5913 63.2974 13.5913H61.6998V15.5933H63.3231Z" fill="white" fill-opacity="0.68"/>
<path d="M70.3213 15.6708H73.2072V17.3758H68.1182V8.30858H70.3213V15.6708Z" fill="white" fill-opacity="0.68"/>
<path d="M76.59 8.30858V17.3758H74.3869V8.30858H76.59Z" fill="white" fill-opacity="0.68"/>
<path d="M82.5927 17.4662C81.7424 17.4662 80.9608 17.2682 80.2479 16.8721C79.5436 16.476 78.981 15.9249 78.5602 15.2188C78.1479 14.5041 77.9417 13.7033 77.9417 12.8164C77.9417 11.9294 78.1479 11.1329 78.5602 10.4268C78.981 9.72076 79.5436 9.16967 80.2479 8.77357C80.9608 8.37747 81.7424 8.17942 82.5927 8.17942C83.4431 8.17942 84.2204 8.37747 84.9247 8.77357C85.6376 9.16967 86.1959 9.72076 86.5996 10.4268C87.0118 11.1329 87.218 11.9294 87.218 12.8164C87.218 13.7033 87.0118 14.5041 86.5996 15.2188C86.1873 15.9249 85.629 16.476 84.9247 16.8721C84.2204 17.2682 83.4431 17.4662 82.5927 17.4662ZM82.5927 15.4513C83.3142 15.4513 83.8897 15.2102 84.3192 14.728C84.7572 14.2458 84.9762 13.6086 84.9762 12.8164C84.9762 12.0155 84.7572 11.3783 84.3192 10.9047C83.8897 10.4225 83.3142 10.1814 82.5927 10.1814C81.8627 10.1814 81.2786 10.4182 80.8406 10.8918C80.4111 11.3654 80.1964 12.0069 80.1964 12.8164C80.1964 13.6172 80.4111 14.2587 80.8406 14.7409C81.2786 15.2145 81.8627 15.4513 82.5927 15.4513Z" fill="white" fill-opacity="0.68"/>
<path d="M95.0787 8.30858V10.0781H92.6824V17.3758H90.4793V10.0781H88.0829V8.30858H95.0787Z" fill="white" fill-opacity="0.68"/>
<path d="M104.147 8.30858V17.3758H101.943V13.643H98.5163V17.3758H96.3132V8.30858H98.5163V11.8606H101.943V8.30858H104.147Z" fill="white" fill-opacity="0.68"/>
<path d="M108.069 10.0781V11.9122H111.019V13.6172H108.069V15.6063H111.406V17.3758H105.866V8.30858H111.406V10.0781H108.069ZM110.079 6.26782V7.79193L106.974 6.48739V4.76953L110.079 6.26782Z" fill="white" fill-opacity="0.68"/>
<path d="M119.407 18.9257L118.247 17.3629C117.904 17.4318 117.569 17.4662 117.242 17.4662C116.392 17.4662 115.61 17.2682 114.897 16.8721C114.193 16.476 113.631 15.9249 113.21 15.2188C112.797 14.5041 112.591 13.7033 112.591 12.8164C112.591 11.9294 112.797 11.1329 113.21 10.4268C113.631 9.72076 114.193 9.16967 114.897 8.77357C115.61 8.37747 116.392 8.17942 117.242 8.17942C118.093 8.17942 118.87 8.37747 119.574 8.77357C120.287 9.16967 120.845 9.72076 121.249 10.4268C121.661 11.1329 121.867 11.9294 121.867 12.8164C121.867 13.5913 121.709 14.3017 121.391 14.9475C121.082 15.5847 120.648 16.1143 120.09 16.5362L122.074 18.9257H119.407ZM114.846 12.8164C114.846 13.6172 115.061 14.2587 115.49 14.7409C115.928 15.2145 116.512 15.4513 117.242 15.4513C117.964 15.4513 118.539 15.2102 118.969 14.728C119.407 14.2458 119.626 13.6086 119.626 12.8164C119.626 12.0155 119.407 11.3783 118.969 10.9047C118.539 10.4225 117.964 10.1814 117.242 10.1814C116.512 10.1814 115.928 10.4182 115.49 10.8918C115.061 11.3654 114.846 12.0069 114.846 12.8164Z" fill="white" fill-opacity="0.68"/>
<path d="M125.412 8.30858V13.7334C125.412 14.2759 125.545 14.6935 125.811 14.9863C126.077 15.2791 126.468 15.4254 126.983 15.4254C127.499 15.4254 127.894 15.2791 128.169 14.9863C128.444 14.6935 128.581 14.2759 128.581 13.7334V8.30858H130.784V13.7205C130.784 14.5299 130.612 15.2145 130.269 15.7742C129.925 16.3339 129.461 16.7558 128.877 17.04C128.302 17.3241 127.658 17.4662 126.945 17.4662C126.232 17.4662 125.592 17.3284 125.025 17.0529C124.467 16.7687 124.024 16.3468 123.698 15.7871C123.372 15.2188 123.208 14.5299 123.208 13.7205V8.30858H125.412Z" fill="white" fill-opacity="0.68"/>
<path d="M134.663 10.0781V11.9122H137.613V13.6172H134.663V15.6063H138V17.3758H132.46V8.30858H138V10.0781H134.663Z" fill="white" fill-opacity="0.68"/>
<path d="M52.163 19.5699V24.6412H51.1484V21.3427L49.7932 24.6412H49.025L47.6625 21.3427V24.6412H46.6479V19.5699H47.8002L49.4091 23.3407L51.0179 19.5699H52.163Z" fill="white" fill-opacity="0.68"/>
<path d="M54.2386 19.5699V22.7086C54.2386 23.0525 54.328 23.3165 54.5068 23.5005C54.6855 23.6797 54.9368 23.7693 55.2605 23.7693C55.589 23.7693 55.8426 23.6797 56.0214 23.5005C56.2002 23.3165 56.2895 23.0525 56.2895 22.7086V19.5699H57.3114V22.7013C57.3114 23.1324 57.2172 23.4981 57.0287 23.7984C56.8451 24.0939 56.5963 24.3167 56.2823 24.4668C55.9731 24.617 55.6276 24.692 55.246 24.692C54.8691 24.692 54.5261 24.617 54.2169 24.4668C53.9125 24.3167 53.6709 24.0939 53.4922 23.7984C53.3134 23.4981 53.224 23.1324 53.224 22.7013V19.5699H54.2386Z" fill="white" fill-opacity="0.68"/>
<path d="M62.6906 24.6412H61.676L59.3787 21.1611V24.6412H58.3641V19.5627H59.3787L61.676 23.0501V19.5627H62.6906V24.6412Z" fill="white" fill-opacity="0.68"/>
<path d="M64.7803 19.5699V24.6412H63.7657V19.5699H64.7803Z" fill="white" fill-opacity="0.68"/>
<path d="M65.6088 22.0983C65.6088 21.5994 65.7199 21.1538 65.9422 20.7615C66.1692 20.3643 66.476 20.0567 66.8625 19.8388C67.2539 19.616 67.6911 19.5045 68.1743 19.5045C68.7395 19.5045 69.2347 19.6499 69.6599 19.9405C70.0851 20.2311 70.3822 20.6331 70.5513 21.1465H69.3845C69.2686 20.9043 69.1043 20.7227 68.8917 20.6016C68.684 20.4805 68.4424 20.42 68.167 20.42C67.8723 20.42 67.609 20.4902 67.3771 20.6307C67.15 20.7663 66.9712 20.96 66.8408 21.2119C66.7152 21.4638 66.6524 21.7592 66.6524 22.0983C66.6524 22.4325 66.7152 22.728 66.8408 22.9847C66.9712 23.2365 67.15 23.4327 67.3771 23.5732C67.609 23.7088 67.8723 23.7766 68.167 23.7766C68.4424 23.7766 68.684 23.7161 68.8917 23.595C69.1043 23.469 69.2686 23.285 69.3845 23.0428H70.5513C70.3822 23.5611 70.0851 23.9655 69.6599 24.2561C69.2396 24.5419 68.7444 24.6848 68.1743 24.6848C67.6911 24.6848 67.2539 24.5758 66.8625 24.3578C66.476 24.135 66.1692 23.8275 65.9422 23.4351C65.7199 23.0428 65.6088 22.5972 65.6088 22.0983Z" fill="white" fill-opacity="0.68"/>
<path d="M72.5049 19.5699V24.6412H71.4904V19.5699H72.5049Z" fill="white" fill-opacity="0.68"/>
<path d="M77.2686 21.1393C77.2686 21.4105 77.2034 21.6648 77.0729 21.9021C76.9473 22.1395 76.7468 22.3308 76.4714 22.4761C76.2008 22.6214 75.8578 22.6941 75.4423 22.6941H74.5944V24.6412H73.5798V19.5699H75.4423C75.8337 19.5699 76.167 19.6377 76.4424 19.7734C76.7178 19.909 76.9231 20.0955 77.0584 20.3328C77.1985 20.5701 77.2686 20.839 77.2686 21.1393ZM75.3988 21.8731C75.6791 21.8731 75.8868 21.8101 76.0221 21.6842C76.1574 21.5534 76.225 21.3718 76.225 21.1393C76.225 20.6452 75.9496 20.3982 75.3988 20.3982H74.5944V21.8731H75.3988Z" fill="white" fill-opacity="0.68"/>
<path d="M81.1631 23.6749H79.1485L78.8151 24.6412H77.7498L79.5688 19.5627H80.7501L82.5691 24.6412H81.4965L81.1631 23.6749ZM80.8877 22.8612L80.1558 20.7397L79.4238 22.8612H80.8877Z" fill="white" fill-opacity="0.68"/>
<path d="M84.336 23.8347H86.0029V24.6412H83.3215V19.5699H84.336V23.8347Z" fill="white" fill-opacity="0.68"/>
<path d="M87.7348 20.3909V21.6624H89.4379V22.4688H87.7348V23.8129H89.6553V24.6412H86.7202V19.5627H89.6553V20.3909H87.7348Z" fill="white" fill-opacity="0.68"/>
<path d="M94.2174 19.5699C94.7488 19.5699 95.215 19.6741 95.616 19.8823C96.0219 20.0906 96.3335 20.3885 96.5509 20.776C96.7731 21.1586 96.8843 21.6042 96.8843 22.1128C96.8843 22.6214 96.7731 23.067 96.5509 23.4497C96.3335 23.8275 96.0219 24.1205 95.616 24.3288C95.215 24.537 94.7488 24.6412 94.2174 24.6412H92.4491V19.5699H94.2174ZM94.1811 23.7766C94.7126 23.7766 95.1232 23.6313 95.4131 23.3407C95.703 23.0501 95.8479 22.6408 95.8479 22.1128C95.8479 21.5849 95.703 21.1732 95.4131 20.8777C95.1232 20.5774 94.7126 20.4273 94.1811 20.4273H93.4637V23.7766H94.1811Z" fill="white" fill-opacity="0.68"/>
<path d="M98.7308 20.3909V21.6624H100.434V22.4688H98.7308V23.8129H100.651V24.6412H97.7162V19.5627H100.651V20.3909H98.7308Z" fill="white" fill-opacity="0.68"/>
<path d="M104.46 23.8347H106.126V24.6412H103.445V19.5699H104.46V23.8347Z" fill="white" fill-opacity="0.68"/>
<path d="M110.866 19.5699L109.156 22.8757V24.6412H108.141V22.8757L106.423 19.5699H107.569L108.656 21.8876L109.735 19.5699H110.866Z" fill="white" fill-opacity="0.68"/>
<path d="M113.872 24.692C113.398 24.692 112.963 24.5806 112.567 24.3578C112.171 24.135 111.857 23.8275 111.625 23.4351C111.393 23.0379 111.277 22.5899 111.277 22.091C111.277 21.597 111.393 21.1538 111.625 20.7615C111.857 20.3643 112.171 20.0543 112.567 19.8315C112.963 19.6087 113.398 19.4973 113.872 19.4973C114.35 19.4973 114.785 19.6087 115.176 19.8315C115.572 20.0543 115.884 20.3643 116.111 20.7615C116.343 21.1538 116.459 21.597 116.459 22.091C116.459 22.5899 116.343 23.0379 116.111 23.4351C115.884 23.8275 115.572 24.135 115.176 24.3578C114.78 24.5806 114.345 24.692 113.872 24.692ZM113.872 23.7839C114.176 23.7839 114.444 23.7161 114.676 23.5804C114.908 23.44 115.089 23.2414 115.22 22.9847C115.35 22.728 115.415 22.4301 115.415 22.091C115.415 21.752 115.35 21.4565 115.22 21.2046C115.089 20.9479 114.908 20.7518 114.676 20.6162C114.444 20.4805 114.176 20.4127 113.872 20.4127C113.567 20.4127 113.297 20.4805 113.06 20.6162C112.828 20.7518 112.647 20.9479 112.516 21.2046C112.386 21.4565 112.321 21.752 112.321 22.091C112.321 22.4301 112.386 22.728 112.516 22.9847C112.647 23.2414 112.828 23.44 113.06 23.5804C113.297 23.7161 113.567 23.7839 113.872 23.7839Z" fill="white" fill-opacity="0.68"/>
<path d="M121.613 24.6412H120.598L118.301 21.1611V24.6412H117.286V19.5627H118.301L120.598 23.0501V19.5627H121.613V24.6412Z" fill="white" fill-opacity="0.68"/>
<path fill-rule="evenodd" clip-rule="evenodd" d="M2.64103 0.880859H2.87069L3.0365 6.22803L7.57878 3.11983V28.4398H0V8.30585L2.46306 6.62042L2.64103 0.880859ZM12.2297 20.6895H7.5794V28.4406H12.23V28.4398H14.4687V28.4399H19.1193V28.4395H24.459V28.4401H29.1096V28.4392H30.4877V28.4395H39.6167V3.29177H30.4877V18.2768H28.5926V23.6172H27.0424V7.61703L22.3537 3.29177L17.7412 7.61703V18.9664H16.7081V17.4161H12.2297V20.6895Z" fill="white" fill-opacity="0.68"/>
</svg>
